<svg width="127" height="46" viewBox="0 0 127 46" fill="none" xmlns="http://www.w3.org/2000/svg">
<g clip-path="url(#clip0_275_4329)">
<path d="M31.1573 14.0323C31.0297 14.0323 30.9032 14.0401 30.7783 14.0547V13.2805C30.7783 6.41705 25.3054 0.85289 18.5545 0.85289C11.8037 0.85289 6.33038 6.41666 6.33038 13.2805V14.0774C4.37886 14.4035 2.87378 16.4773 2.87378 18.9874C2.87378 21.724 4.66222 23.9424 6.86857 23.9424C7.01969 23.9424 7.16889 23.9319 7.31578 23.9115C9.18479 28.3413 13.5131 31.4444 18.5545 31.4444C23.596 31.4444 28.0696 28.2355 29.8855 23.6861C30.2849 23.8523 30.7128 23.9428 31.1573 23.9428C33.3636 23.9428 35.1521 21.7244 35.1521 18.9878C35.1521 16.2512 33.3636 14.0327 31.1573 14.0327V14.0323Z" fill="#282735"/>
<path d="M14.3552 20.4984H23.0411C24.592 20.4984 25.8512 21.7785 25.8512 23.3553V24.3422H11.5452V23.3553C11.5452 21.7785 12.8043 20.4984 14.3552 20.4984Z" fill="#282735"/>
<path d="M32.2753 9.80079C32.2198 7.67444 31.2977 1.9241 23.0567 0.845835C23.0532 0.663577 23.0394 0.48367 23.0151 0.307291C22.9908 0.130912 22.8397 0 22.6639 0H14.6477C14.4719 0 14.3208 0.130128 14.2965 0.307291C14.2722 0.484454 14.2579 0.663577 14.2548 0.845835C6.0139 1.9241 5.09134 7.67444 5.03621 9.80079C5.02734 10.1422 5.03081 14.7664 5.03351 17.5771C5.03467 18.7581 5.97689 19.7148 7.13847 19.7148H8.45734C8.45734 19.4381 8.43845 10.0469 8.45734 9.78668C8.79275 5.12792 12.0277 3.08075 14.4333 2.19768C14.9588 4.00654 16.5807 5.33683 18.5164 5.39445C18.5515 5.39563 18.5866 5.39641 18.6217 5.3968C18.6301 5.3968 18.6386 5.39719 18.6475 5.39719C18.6502 5.39719 18.6529 5.39719 18.6556 5.39719C18.6583 5.39719 18.661 5.39719 18.6637 5.39719C18.6722 5.39719 18.681 5.3968 18.6895 5.3968C18.7246 5.3968 18.7601 5.39563 18.7948 5.39445C20.7305 5.33644 22.3524 4.00654 22.8778 2.19768C25.2835 3.08075 28.5184 5.12792 28.8538 9.78668C28.8727 10.0469 28.8538 19.4381 28.8538 19.7148H30.1727C31.3343 19.7148 32.2765 18.7585 32.2777 17.5771C32.2807 14.7664 32.2842 10.1422 32.275 9.80079H32.2753Z" fill="#282735"/>
<path d="M10.1963 32.1782H28.1374C33.7649 32.1782 38.3337 36.8232 38.3337 42.5445V46H0V42.5445C0 36.8232 4.56883 32.1782 10.1963 32.1782Z" fill="#282735"/>
<path d="M21.7138 46H16.6195L9.86206 32.1782H28.4716L21.7138 46Z" fill="#282735"/>
<path d="M21.1497 46L19.6369 36.8067L20.9832 35.4384L19.1666 33.5916L17.3504 35.4384L18.6962 36.8067L17.1838 46H21.1497Z" fill="#282735"/>
</g>
<g clip-path="url(#clip1_275_4329)">
<path d="M75.2405 14.0323C75.1129 14.0323 74.9865 14.0401 74.8616 14.0547V13.2805C74.8616 6.41705 69.3887 0.85289 62.6378 0.85289C55.8869 0.85289 50.4136 6.41666 50.4136 13.2805V14.0774C48.4621 14.4035 46.957 16.4773 46.957 18.9874C46.957 21.724 48.7455 23.9424 50.9518 23.9424C51.1029 23.9424 51.2521 23.9319 51.399 23.9115C53.268 28.3413 57.5963 31.4444 62.6378 31.4444C67.6793 31.4444 72.1529 28.2355 73.9687 23.6861C74.3681 23.8523 74.796 23.9428 75.2405 23.9428C77.4469 23.9428 79.2353 21.7244 79.2353 18.9878C79.2353 16.2512 77.4469 14.0327 75.2405 14.0327V14.0323Z" fill="#282735"/>
<path d="M58.4385 20.4984H67.1243C68.6753 20.4984 69.9344 21.7785 69.9344 23.3553V24.3422H55.6284V23.3553C55.6284 21.7785 56.8875 20.4984 58.4385 20.4984Z" fill="#282735"/>
<path d="M76.3586 9.80079C76.3031 7.67444 75.3809 1.9241 67.14 0.845835C67.1365 0.663577 67.1226 0.48367 67.0983 0.307291C67.074 0.130912 66.9229 0 66.7471 0H58.7309C58.5551 0 58.404 0.130128 58.3797 0.307291C58.3554 0.484454 58.3412 0.663577 58.3381 0.845835C50.0971 1.9241 49.1746 7.67444 49.1195 9.80079C49.1106 10.1422 49.1141 14.7664 49.1168 17.5771C49.1179 18.7581 50.0601 19.7148 51.2217 19.7148H52.5406C52.5406 19.4381 52.5217 10.0469 52.5406 9.78668C52.876 5.12792 56.1109 3.08075 58.5166 2.19768C59.0421 4.00654 60.664 5.33683 62.5997 5.39445C62.6347 5.39563 62.6698 5.39641 62.7049 5.3968C62.7134 5.3968 62.7219 5.39719 62.7307 5.39719C62.7334 5.39719 62.7361 5.39719 62.7388 5.39719C62.7415 5.39719 62.7442 5.39719 62.7469 5.39719C62.7554 5.39719 62.7643 5.3968 62.7728 5.3968C62.8078 5.3968 62.8433 5.39563 62.878 5.39445C64.8137 5.33644 66.4356 4.00654 66.9611 2.19768C69.3667 3.08075 72.6017 5.12792 72.9371 9.78668C72.956 10.0469 72.9371 19.4381 72.9371 19.7148H74.256C75.4175 19.7148 76.3598 18.7585 76.3609 17.5771C76.364 14.7664 76.3675 10.1422 76.3582 9.80079H76.3586Z" fill="#282735"/>
<path d="M54.2796 32.1782H72.2207C77.8481 32.1782 82.417 36.8232 82.417 42.5445V46H44.0833V42.5445C44.0833 36.8232 48.6521 32.1782 54.2796 32.1782Z" fill="#282735"/>
<path d="M65.7971 46H60.7028L53.9453 32.1782H72.5549L65.7971 46Z" fill="#282735"/>
<path d="M65.233 46L63.7202 36.8067L65.0664 35.4384L63.2498 33.5916L61.4336 35.4384L62.7795 36.8067L61.2671 46H65.233Z" fill="#282735"/>
</g>
<g clip-path="url(#clip2_275_4329)">
<path d="M119.324 14.0323C119.196 14.0323 119.07 14.0401 118.945 14.0547V13.2805C118.945 6.41705 113.472 0.85289 106.721 0.85289C99.9704 0.85289 94.4971 6.41666 94.4971 13.2805V14.0774C92.5456 14.4035 91.0405 16.4773 91.0405 18.9874C91.0405 21.724 92.829 23.9424 95.0353 23.9424C95.1864 23.9424 95.3356 23.9319 95.4825 23.9115C97.3515 28.3413 101.68 31.4444 106.721 31.4444C111.763 31.4444 116.236 28.2355 118.052 23.6861C118.452 23.8523 118.88 23.9428 119.324 23.9428C121.53 23.9428 123.319 21.7244 123.319 18.9878C123.319 16.2512 121.53 14.0327 119.324 14.0327V14.0323Z" fill="#D3D3D3"/>
<path d="M102.522 20.4984H111.208C112.759 20.4984 114.018 21.7785 114.018 23.3553V24.3422H99.7119V23.3553C99.7119 21.7785 100.971 20.4984 102.522 20.4984Z" fill="#D3D3D3"/>
<path d="M120.442 9.80079C120.387 7.67444 119.464 1.9241 111.223 0.845835C111.22 0.663577 111.206 0.48367 111.182 0.307291C111.158 0.130912 111.006 0 110.831 0H102.814C102.639 0 102.488 0.130128 102.463 0.307291C102.439 0.484454 102.425 0.663577 102.422 0.845835C94.1806 1.9241 93.2581 7.67444 93.203 9.80079C93.1941 10.1422 93.1976 14.7664 93.2003 17.5771C93.2014 18.7581 94.1436 19.7148 95.3052 19.7148H96.6241C96.6241 19.4381 96.6052 10.0469 96.6241 9.78668C96.9595 5.12792 100.194 3.08075 102.6 2.19768C103.126 4.00654 104.747 5.33683 106.683 5.39445C106.718 5.39563 106.753 5.39641 106.788 5.3968C106.797 5.3968 106.805 5.39719 106.814 5.39719C106.817 5.39719 106.82 5.39719 106.822 5.39719C106.825 5.39719 106.828 5.39719 106.83 5.39719C106.839 5.39719 106.848 5.3968 106.856 5.3968C106.891 5.3968 106.927 5.39563 106.962 5.39445C108.897 5.33644 110.519 4.00654 111.045 2.19768C113.45 3.08075 116.685 5.12792 117.021 9.78668C117.039 10.0469 117.021 19.4381 117.021 19.7148H118.339C119.501 19.7148 120.443 18.7585 120.444 17.5771C120.447 14.7664 120.451 10.1422 120.442 9.80079H120.442Z" fill="#D3D3D3"/>
<path d="M98.3631 32.1782H116.304C121.932 32.1782 126.5 36.8232 126.5 42.5445V46H88.1667V42.5445C88.1667 36.8232 92.7356 32.1782 98.3631 32.1782Z" fill="#D3D3D3"/>
<path d="M109.881 46H104.786L98.0288 32.1782H116.638L109.881 46Z" fill="#D3D3D3"/>
<path d="M109.316 46L107.804 36.8067L109.15 35.4384L107.333 33.5916L105.517 35.4384L106.863 36.8067L105.351 46H109.316Z" fill="#D3D3D3"/>
</g>
<defs>
<clipPath id="clip0_275_4329">
<rect width="38.3333" height="46" fill="white"/>
</clipPath>
<clipPath id="clip1_275_4329">
<rect width="38.3333" height="46" fill="white" transform="translate(44.0833)"/>
</clipPath>
<clipPath id="clip2_275_4329">
<rect width="38.3333" height="46" fill="white" transform="translate(88.1667)"/>
</clipPath>
</defs>
</svg>
