<svg width="36" height="36" viewBox="0 0 36 36" fill="none" xmlns="http://www.w3.org/2000/svg">
<g id="Group 1056">
<path id="Vector" d="M17.8244 35.5811H17.7462C7.96103 35.5811 0 27.6177 0 17.8297V17.7514C0 7.9634 7.96103 0 17.7462 0H17.8244C27.6096 0 35.5706 7.9634 35.5706 17.7514V17.8297C35.5706 27.6177 27.6096 35.5811 17.8244 35.5811ZM17.7462 1.20438C8.62445 1.20438 1.20403 8.62701 1.20403 17.7514V17.8297C1.20403 26.9541 8.62445 34.3767 17.7462 34.3767H17.8244C26.9461 34.3767 34.3666 26.9541 34.3666 17.8297V17.7514C34.3666 8.62701 26.9461 1.20438 17.8244 1.20438H17.7462Z" fill="white"/>
<path id="Vector_2" d="M20.1782 13.801V17.5454H24.8089L24.0756 22.5894H20.1782V34.2105C19.3968 34.3189 18.5973 34.3755 17.7858 34.3755C16.8491 34.3755 15.9292 34.3008 15.0334 34.1563V22.5894H10.7627V17.5454H15.0334V12.964C15.0334 10.1216 17.3367 7.81645 20.1794 7.81645V7.81886C20.1878 7.81886 20.1951 7.81645 20.2035 7.81645H24.8101V12.1787H21.8C20.9054 12.1787 20.1794 12.905 20.1794 13.7998L20.1782 13.801Z" fill="white"/>
</g>
</svg>
