<svg width="66" height="24" viewBox="0 0 66 24" fill="none" xmlns="http://www.w3.org/2000/svg">
<g clip-path="url(#clip0_371_6017)">
<path d="M16.2561 7.32123C16.1896 7.32123 16.1236 7.32532 16.0584 7.33288V6.929C16.0584 3.34805 13.203 0.445007 9.68078 0.445007C6.15857 0.445007 3.30296 3.34785 3.30296 6.929V7.34474C2.28477 7.51489 1.49951 8.59688 1.49951 9.90648C1.49951 11.3343 2.43261 12.4917 3.58375 12.4917C3.6626 12.4917 3.74044 12.4862 3.81708 12.4756C4.79221 14.7868 7.05044 16.4058 9.68078 16.4058C12.3111 16.4058 14.6452 14.7316 15.5926 12.358C15.8009 12.4447 16.0242 12.4919 16.2561 12.4919C17.4073 12.4919 18.3404 11.3345 18.3404 9.90668C18.3404 8.47889 17.4073 7.32143 16.2561 7.32143V7.32123Z" fill="#282735"/>
<path d="M7.48956 10.6948H12.0213C12.8305 10.6948 13.4874 11.3627 13.4874 12.1854V12.7003H6.02344V12.1854C6.02344 11.3627 6.68037 10.6948 7.48956 10.6948V10.6948Z" fill="#282735"/>
<path d="M16.8392 5.11345C16.8102 4.00406 16.3291 1.00388 12.0295 0.441305C12.0277 0.346214 12.0204 0.25235 12.0078 0.160326C11.9951 0.0683021 11.9162 0 11.8245 0H7.64216C7.55044 0 7.4716 0.0678931 7.45892 0.160326C7.44625 0.252759 7.43881 0.346214 7.4372 0.441305C3.13758 1.00388 2.65624 4.00406 2.62748 5.11345C2.62285 5.29157 2.62466 7.70423 2.62607 9.17068C2.62668 9.78683 3.11827 10.286 3.72431 10.286H4.41242C4.41242 10.1416 4.40256 5.24188 4.41242 5.10609C4.58741 2.67544 6.2752 1.60735 7.53033 1.14662C7.80449 2.09037 8.65069 2.78443 9.66063 2.8145C9.67893 2.81511 9.69724 2.81552 9.71554 2.81572C9.71997 2.81572 9.72439 2.81593 9.72902 2.81593C9.73043 2.81593 9.73183 2.81593 9.73324 2.81593C9.73465 2.81593 9.73606 2.81593 9.73747 2.81593C9.74189 2.81593 9.74652 2.81572 9.75094 2.81572C9.76925 2.81572 9.78775 2.81511 9.80585 2.8145C10.8158 2.78423 11.662 2.09037 11.9362 1.14662C13.1913 1.60735 14.8791 2.67544 15.0541 5.10609C15.0639 5.24188 15.0541 10.1416 15.0541 10.286H15.7422C16.3482 10.286 16.8398 9.78703 16.8404 9.17068C16.842 7.70423 16.8438 5.29157 16.839 5.11345H16.8392Z" fill="#282735"/>
<path d="M5.31982 16.7886H14.6804C17.6165 16.7886 20.0002 19.2121 20.0002 22.1972V24H0V22.1972C0 19.2121 2.38374 16.7886 5.31982 16.7886Z" fill="#282735"/>
<path d="M11.329 24H8.67113L5.14551 16.7886H14.8549L11.329 24Z" fill="#282735"/>
<path d="M11.0345 24L10.2452 19.2035L10.9476 18.4896L9.99981 17.526L9.05223 18.4896L9.75441 19.2035L8.96533 24H11.0345Z" fill="#282735"/>
</g>
<g clip-path="url(#clip1_371_6017)">
<path d="M39.2561 7.32123C39.1896 7.32123 39.1236 7.32532 39.0584 7.33288V6.929C39.0584 3.34805 36.203 0.445007 32.6808 0.445007C29.1586 0.445007 26.303 3.34785 26.303 6.929V7.34474C25.2848 7.51489 24.4995 8.59688 24.4995 9.90648C24.4995 11.3343 25.4326 12.4917 26.5838 12.4917C26.6626 12.4917 26.7404 12.4862 26.8171 12.4756C27.7922 14.7868 30.0504 16.4058 32.6808 16.4058C35.3111 16.4058 37.6452 14.7316 38.5926 12.358C38.8009 12.4447 39.0242 12.4919 39.2561 12.4919C40.4073 12.4919 41.3404 11.3345 41.3404 9.90668C41.3404 8.47889 40.4073 7.32143 39.2561 7.32143V7.32123Z" fill="#282735"/>
<path d="M30.4896 10.6948H35.0213C35.8305 10.6948 36.4874 11.3627 36.4874 12.1854V12.7003H29.0234V12.1854C29.0234 11.3627 29.6804 10.6948 30.4896 10.6948V10.6948Z" fill="#282735"/>
<path d="M39.8392 5.11345C39.8102 4.00406 39.3291 1.00388 35.0295 0.441305C35.0277 0.346214 35.0204 0.25235 35.0078 0.160326C34.9951 0.0683021 34.9162 0 34.8245 0H30.6422C30.5504 0 30.4716 0.0678931 30.4589 0.160326C30.4463 0.252759 30.4388 0.346214 30.4372 0.441305C26.1376 1.00388 25.6562 4.00406 25.6275 5.11345C25.6229 5.29157 25.6247 7.70423 25.6261 9.17068C25.6267 9.78683 26.1183 10.286 26.7243 10.286H27.4124C27.4124 10.1416 27.4026 5.24188 27.4124 5.10609C27.5874 2.67544 29.2752 1.60735 30.5303 1.14662C30.8045 2.09037 31.6507 2.78443 32.6606 2.8145C32.6789 2.81511 32.6972 2.81552 32.7155 2.81572C32.72 2.81572 32.7244 2.81593 32.729 2.81593C32.7304 2.81593 32.7318 2.81593 32.7332 2.81593C32.7346 2.81593 32.7361 2.81593 32.7375 2.81593C32.7419 2.81593 32.7465 2.81572 32.7509 2.81572C32.7692 2.81572 32.7878 2.81511 32.8059 2.8145C33.8158 2.78423 34.662 2.09037 34.9362 1.14662C36.1913 1.60735 37.8791 2.67544 38.0541 5.10609C38.0639 5.24188 38.0541 10.1416 38.0541 10.286H38.7422C39.3482 10.286 39.8398 9.78703 39.8404 9.17068C39.842 7.70423 39.8438 5.29157 39.839 5.11345H39.8392Z" fill="#282735"/>
<path d="M28.3198 16.7886H37.6804C40.6165 16.7886 43.0002 19.2121 43.0002 22.1972V24H23V22.1972C23 19.2121 25.3837 16.7886 28.3198 16.7886Z" fill="#282735"/>
<path d="M34.329 24H31.6711L28.1455 16.7886H37.8549L34.329 24Z" fill="#282735"/>
<path d="M34.0345 24L33.2452 19.2035L33.9476 18.4896L32.9998 17.526L32.0522 18.4896L32.7544 19.2035L31.9653 24H34.0345Z" fill="#282735"/>
</g>
<g clip-path="url(#clip2_371_6017)">
<path d="M62.2561 7.32123C62.1896 7.32123 62.1236 7.32532 62.0584 7.33288V6.929C62.0584 3.34805 59.203 0.445007 55.6808 0.445007C52.1586 0.445007 49.303 3.34785 49.303 6.929V7.34474C48.2848 7.51489 47.4995 8.59688 47.4995 9.90648C47.4995 11.3343 48.4326 12.4917 49.5838 12.4917C49.6626 12.4917 49.7404 12.4862 49.8171 12.4756C50.7922 14.7868 53.0504 16.4058 55.6808 16.4058C58.3111 16.4058 60.6452 14.7316 61.5926 12.358C61.8009 12.4447 62.0242 12.4919 62.2561 12.4919C63.4073 12.4919 64.3404 11.3345 64.3404 9.90668C64.3404 8.47889 63.4073 7.32143 62.2561 7.32143V7.32123Z" fill="#282735"/>
<path d="M53.4896 10.6948H58.0213C58.8305 10.6948 59.4874 11.3627 59.4874 12.1854V12.7003H52.0234V12.1854C52.0234 11.3627 52.6804 10.6948 53.4896 10.6948V10.6948Z" fill="#282735"/>
<path d="M62.8392 5.11345C62.8102 4.00406 62.3291 1.00388 58.0295 0.441305C58.0277 0.346214 58.0204 0.25235 58.0078 0.160326C57.9951 0.0683021 57.9162 0 57.8245 0H53.6422C53.5504 0 53.4716 0.0678931 53.4589 0.160326C53.4463 0.252759 53.4388 0.346214 53.4372 0.441305C49.1376 1.00388 48.6562 4.00406 48.6275 5.11345C48.6229 5.29157 48.6247 7.70423 48.6261 9.17068C48.6267 9.78683 49.1183 10.286 49.7243 10.286H50.4124C50.4124 10.1416 50.4026 5.24188 50.4124 5.10609C50.5874 2.67544 52.2752 1.60735 53.5303 1.14662C53.8045 2.09037 54.6507 2.78443 55.6606 2.8145C55.6789 2.81511 55.6972 2.81552 55.7155 2.81572C55.72 2.81572 55.7244 2.81593 55.729 2.81593C55.7304 2.81593 55.7318 2.81593 55.7332 2.81593C55.7346 2.81593 55.7361 2.81593 55.7375 2.81593C55.7419 2.81593 55.7465 2.81572 55.7509 2.81572C55.7692 2.81572 55.7878 2.81511 55.8059 2.8145C56.8158 2.78423 57.662 2.09037 57.9362 1.14662C59.1913 1.60735 60.8791 2.67544 61.0541 5.10609C61.0639 5.24188 61.0541 10.1416 61.0541 10.286H61.7422C62.3482 10.286 62.8398 9.78703 62.8404 9.17068C62.842 7.70423 62.8438 5.29157 62.839 5.11345H62.8392Z" fill="#282735"/>
<path d="M51.3198 16.7886H60.6804C63.6165 16.7886 66.0002 19.2121 66.0002 22.1972V24H46V22.1972C46 19.2121 48.3837 16.7886 51.3198 16.7886Z" fill="#282735"/>
<path d="M57.329 24H54.6711L51.1455 16.7886H60.8549L57.329 24Z" fill="#282735"/>
<path d="M57.0345 24L56.2452 19.2035L56.9476 18.4896L55.9998 17.526L55.0522 18.4896L55.7544 19.2035L54.9653 24H57.0345Z" fill="#282735"/>
</g>
<defs>
<clipPath id="clip0_371_6017">
<rect width="20" height="24" fill="white"/>
</clipPath>
<clipPath id="clip1_371_6017">
<rect width="20" height="24" fill="white" transform="translate(23)"/>
</clipPath>
<clipPath id="clip2_371_6017">
<rect width="20" height="24" fill="white" transform="translate(46)"/>
</clipPath>
</defs>
</svg>
