<svg width="36" height="36" viewBox="0 0 36 36" fill="none" xmlns="http://www.w3.org/2000/svg">
<path d="M17.8244 35.5811H17.7462C7.96104 35.5811 0 27.6178 0 17.8297V17.7514C0 7.96343 7.96104 6.10352e-05 17.7462 6.10352e-05H17.8244C27.6096 6.10352e-05 35.5706 7.96343 35.5706 17.7514V17.8297C35.5706 27.6178 27.6096 35.5811 17.8244 35.5811ZM17.7462 1.20444C8.62445 1.20444 1.20403 8.62704 1.20403 17.7514V17.8297C1.20403 26.9541 8.62445 34.3767 17.7462 34.3767H17.8244C26.9461 34.3767 34.3666 26.9541 34.3666 17.8297V17.7514C34.3666 8.62704 26.9461 1.20444 17.8244 1.20444H17.7462Z" fill="white"/>
<path d="M23.1029 7.5961H12.4689C9.53111 7.5961 7.14111 9.9868 7.14111 12.9255V22.6569C7.14111 25.5956 9.53111 27.9863 12.4689 27.9863H23.1029C26.0407 27.9863 28.4307 25.5956 28.4307 22.6569V12.9255C28.4307 9.9868 26.0407 7.5961 23.1029 7.5961ZM9.0206 12.9255C9.0206 11.0238 10.5678 9.47612 12.4689 9.47612H23.1029C25.0041 9.47612 26.5513 11.0238 26.5513 12.9255V22.6569C26.5513 24.5586 25.0041 26.1063 23.1029 26.1063H12.4689C10.5678 26.1063 9.0206 24.5586 9.0206 22.6569V12.9255Z" fill="white"/>
<path d="M17.7861 22.7472C20.518 22.7472 22.7419 20.5239 22.7419 17.79C22.7419 15.056 20.5192 12.8328 17.7861 12.8328C15.053 12.8328 12.8303 15.056 12.8303 17.79C12.8303 20.5239 15.053 22.7472 17.7861 22.7472ZM17.7861 14.714C19.4826 14.714 20.8624 16.0942 20.8624 17.7912C20.8624 19.4882 19.4826 20.8684 17.7861 20.8684C16.0896 20.8684 14.7098 19.4882 14.7098 17.7912C14.7098 16.0942 16.0896 14.714 17.7861 14.714Z" fill="white"/>
<path d="M23.2005 13.6337C23.9362 13.6337 24.5358 13.0351 24.5358 12.298C24.5358 11.561 23.9374 10.9624 23.2005 10.9624C22.4636 10.9624 21.8652 11.561 21.8652 12.298C21.8652 13.0351 22.4636 13.6337 23.2005 13.6337Z" fill="white"/>
</svg>
