<svg width="200" height="27" viewBox="0 0 200 27" fill="none" xmlns="http://www.w3.org/2000/svg">
<g clip-path="url(#clip0_373_6552)">
<path d="M13.0434 19.4288L19.7608 23.625L17.9782 15.7163L23.913 10.395L16.0977 9.70875L13.0434 2.25L9.98905 9.70875L2.17383 10.395L8.10861 15.7163L6.326 23.625L13.0434 19.4288Z" fill="#C8153A"/>
</g>
<g clip-path="url(#clip1_373_6552)">
<path d="M56.5214 19.4288L63.2388 23.625L61.4562 15.7163L67.391 10.395L59.5758 9.70875L56.5214 2.25L53.4671 9.70875L45.6519 10.395L51.5866 15.7163L49.804 23.625L56.5214 19.4288Z" fill="#C8153A"/>
</g>
<g clip-path="url(#clip2_373_6552)">
<path d="M99.9999 19.4288L106.717 23.625L104.935 15.7163L110.87 10.395L103.054 9.70875L99.9999 2.25L96.9456 9.70875L89.1304 10.395L95.0652 15.7163L93.2825 23.625L99.9999 19.4288Z" fill="#C8153A"/>
</g>
<g clip-path="url(#clip3_373_6552)">
<path d="M186.956 8.02125L188.011 10.5975L188.522 11.8462L189.826 11.9588L192.511 12.195L190.467 14.0288L189.478 14.9175L189.772 16.245L190.38 18.9563L188.076 17.5162L186.956 16.7963L185.837 17.4938L183.533 18.9337L184.141 16.2225L184.435 14.895L183.446 14.0062L181.402 12.1725L184.087 11.9362L185.391 11.8238L185.902 10.575L186.956 8.02125V8.02125ZM186.956 2.25L183.902 9.70875L176.087 10.395L182.022 15.7163L180.239 23.625L186.956 19.4288L193.674 23.625L191.891 15.7163L197.826 10.395L190.011 9.70875L186.956 2.25Z" fill="#C8153A"/>
</g>
<path d="M143.87 19.1788L150.587 23.375L148.804 15.4663L154.739 10.145L146.924 9.45875L143.87 2L140.815 9.45875L133 10.145L138.935 15.4663L137.152 23.375L143.87 19.1788Z" fill="#C8153A"/>
<defs>
<clipPath id="clip0_373_6552">
<rect width="26.087" height="27" fill="white"/>
</clipPath>
<clipPath id="clip1_373_6552">
<rect width="26.087" height="27" fill="white" transform="translate(43.478)"/>
</clipPath>
<clipPath id="clip2_373_6552">
<rect width="26.087" height="27" fill="white" transform="translate(86.9565)"/>
</clipPath>
<clipPath id="clip3_373_6552">
<rect width="26.087" height="27" fill="white" transform="translate(173.913)"/>
</clipPath>
</defs>
</svg>
