<svg width="200" height="27" viewBox="0 0 200 27" fill="none" xmlns="http://www.w3.org/2000/svg">
<g clip-path="url(#clip0_233_4269)">
<path d="M13.0434 19.4288L19.7608 23.625L17.9782 15.7163L23.913 10.395L16.0977 9.70875L13.0434 2.25L9.98905 9.70875L2.17383 10.395L8.10861 15.7163L6.326 23.625L13.0434 19.4288Z" fill="#C8153A"/>
</g>
<g clip-path="url(#clip1_233_4269)">
<path d="M56.5217 19.4288L63.2391 23.625L61.4564 15.7163L67.3912 10.395L59.576 9.70875L56.5217 2.25L53.4673 9.70875L45.6521 10.395L51.5869 15.7163L49.8043 23.625L56.5217 19.4288Z" fill="#C8153A"/>
</g>
<g clip-path="url(#clip2_233_4269)">
<path d="M99.9999 19.4288L106.717 23.625L104.935 15.7163L110.87 10.395L103.054 9.70875L99.9999 2.25L96.9456 9.70875L89.1304 10.395L95.0652 15.7163L93.2825 23.625L99.9999 19.4288Z" fill="#C8153A"/>
</g>
<g clip-path="url(#clip3_233_4269)">
<path d="M143.478 8.02125L144.533 10.5975L145.043 11.8462L146.348 11.9588L149.033 12.195L146.989 14.0288L146 14.9175L146.293 16.245L146.902 18.9563L144.598 17.5162L143.478 16.7963L142.359 17.4938L140.054 18.9337L140.663 16.2225L140.956 14.895L139.967 14.0062L137.924 12.1725L140.609 11.9362L141.913 11.8238L142.424 10.575L143.478 8.02125V8.02125ZM143.478 2.25L140.424 9.70875L132.609 10.395L138.543 15.7163L136.761 23.625L143.478 19.4288L150.196 23.625L148.413 15.7163L154.348 10.395L146.533 9.70875L143.478 2.25Z" fill="#C8153A"/>
</g>
<g clip-path="url(#clip4_233_4269)">
<path d="M186.956 8.02125L188.011 10.5975L188.522 11.8462L189.826 11.9588L192.511 12.195L190.467 14.0288L189.478 14.9175L189.772 16.245L190.38 18.9563L188.076 17.5162L186.956 16.7963L185.837 17.4938L183.533 18.9337L184.141 16.2225L184.435 14.895L183.446 14.0062L181.402 12.1725L184.087 11.9362L185.391 11.8238L185.902 10.575L186.956 8.02125V8.02125ZM186.956 2.25L183.902 9.70875L176.087 10.395L182.022 15.7163L180.239 23.625L186.956 19.4288L193.674 23.625L191.891 15.7163L197.826 10.395L190.011 9.70875L186.956 2.25Z" fill="#C8153A"/>
</g>
<defs>
<clipPath id="clip0_233_4269">
<rect width="26.087" height="27" fill="white"/>
</clipPath>
<clipPath id="clip1_233_4269">
<rect width="26.087" height="27" fill="white" transform="translate(43.4783)"/>
</clipPath>
<clipPath id="clip2_233_4269">
<rect width="26.087" height="27" fill="white" transform="translate(86.9565)"/>
</clipPath>
<clipPath id="clip3_233_4269">
<rect width="26.087" height="27" fill="white" transform="translate(130.435)"/>
</clipPath>
<clipPath id="clip4_233_4269">
<rect width="26.087" height="27" fill="white" transform="translate(173.913)"/>
</clipPath>
</defs>
</svg>
