<svg width="36" height="36" viewBox="0 0 36 36" fill="none" xmlns="http://www.w3.org/2000/svg">
<path d="M17.7895 35.5114H17.7114C7.94543 35.5114 0 27.5636 0 17.7948V17.7167C0 7.94782 7.94543 6.10352e-05 17.7114 6.10352e-05H17.7895C27.5555 6.10352e-05 35.5009 7.94782 35.5009 17.7167V17.7948C35.5009 27.5636 27.5555 35.5114 17.7895 35.5114ZM17.7114 1.20208C8.60755 1.20208 1.20167 8.61013 1.20167 17.7167V17.7948C1.20167 26.9013 8.60755 34.3094 17.7114 34.3094H17.7895C26.8933 34.3094 34.2992 26.9013 34.2992 17.7948V17.7167C34.2992 8.61013 26.8933 1.20208 17.7895 1.20208H17.7114Z" fill="white"/>
<path d="M26.0415 13.0132V16.2526C25.4755 16.1973 24.74 16.0687 23.9265 15.7706C22.8642 15.3811 22.0735 14.8487 21.5556 14.4364V20.9838L21.5424 20.9633C21.5508 21.0931 21.5556 21.2254 21.5556 21.3588C21.5556 24.6103 18.9108 27.2571 15.659 27.2571C12.4073 27.2571 9.76245 24.6103 9.76245 21.3588C9.76245 18.1073 12.4073 15.4593 15.659 15.4593C15.9775 15.4593 16.2899 15.4845 16.5951 15.5338V18.7264C16.3019 18.6218 15.9871 18.5653 15.659 18.5653C14.1197 18.5653 12.8664 19.8178 12.8664 21.3588C12.8664 22.8998 14.1197 24.1523 15.659 24.1523C17.1984 24.1523 18.4517 22.8986 18.4517 21.3588C18.4517 21.3011 18.4505 21.2434 18.4469 21.1857V8.4623H21.683C21.695 8.73636 21.7058 9.01283 21.7179 9.2869C21.7395 9.8266 21.9317 10.3447 22.267 10.769C22.66 11.2678 23.2404 11.8472 24.0551 12.31C24.8182 12.7415 25.5344 12.9278 26.0415 13.0156V13.0132Z" fill="white"/>
</svg>
