<svg width="34" height="34" viewBox="0 0 34 34" fill="none" xmlns="http://www.w3.org/2000/svg">
<path d="M33.5 17C33.5 26.1127 26.1127 33.5 17 33.5C7.8873 33.5 0.5 26.1127 0.5 17C0.5 7.8873 7.8873 0.5 17 0.5C26.1127 0.5 33.5 7.8873 33.5 17Z" stroke="white"/>
<line x1="2" y1="10.5" x2="32" y2="10.5" stroke="white"/>
<line x1="2" y1="23.5" x2="32" y2="23.5" stroke="white"/>
<path d="M17.5 0.5C17.5 0.5 10.3475 10.1409 10.5 17.5C10.645 24.498 17.5 33.5 17.5 33.5" stroke="white"/>
<path d="M17 0.5C17 0.5 24.1525 10.1409 24 17.5C23.855 24.498 17 33.5 17 33.5" stroke="white"/>
</svg>
