<svg width="36" height="36" viewBox="0 0 36 36" fill="none" xmlns="http://www.w3.org/2000/svg">
<g clip-path="url(#clip0_279_4566)">
<path d="M17.785 0C14.2675 0 10.8289 1.04307 7.90419 2.99731C4.97946 4.95155 2.69992 7.72919 1.35381 10.979C0.00770599 14.2288 -0.344496 17.8047 0.341742 21.2547C1.02798 24.7046 2.72184 27.8736 5.20911 30.3609C7.69639 32.8482 10.8654 34.542 14.3153 35.2283C17.7653 35.9145 21.3412 35.5623 24.591 34.2162C27.8408 32.8701 30.6185 30.5905 32.5727 27.6658C34.5269 24.7411 35.57 21.3025 35.57 17.785C35.5649 13.0697 33.6895 8.54897 30.3553 5.21474C27.021 1.88051 22.5003 0.00509997 17.785 0V0ZM30.6006 10.3746H25.8268C24.7582 7.898 23.3511 5.58165 21.6458 3.49179C25.4199 4.51876 28.6373 6.99168 30.6006 10.3746V10.3746ZM24.4544 17.785C24.4422 19.294 24.2044 20.7926 23.7489 22.2313H11.8211C11.3656 20.7926 11.1278 19.294 11.1156 17.785C11.1278 16.276 11.3656 14.7774 11.8211 13.3388H23.7489C24.2044 14.7774 24.4422 16.276 24.4544 17.785V17.785ZM13.0097 25.1954H22.5603C21.3023 27.679 19.6942 29.969 17.785 31.9952C15.8752 29.9695 14.2669 27.6795 13.0097 25.1954V25.1954ZM13.0097 10.3746C14.2677 7.89102 15.8759 5.60103 17.785 3.57479C19.6949 5.60046 21.3031 7.89055 22.5603 10.3746H13.0097ZM13.9316 3.49179C12.2237 5.58121 10.8142 7.89757 9.74322 10.3746H4.96943C6.93446 6.99015 10.1547 4.51703 13.9316 3.49179V3.49179ZM3.64742 13.3388H8.7443C8.36008 14.7899 8.16089 16.2839 8.15147 17.785C8.16089 19.2861 8.36008 20.7801 8.7443 22.2313H3.64742C2.73644 19.3371 2.73644 16.2329 3.64742 13.3388V13.3388ZM4.96943 25.1954H9.74322C10.8142 27.6724 12.2237 29.9888 13.9316 32.0782C10.1547 31.053 6.93446 28.5799 4.96943 25.1954V25.1954ZM21.6458 32.0782C23.3511 29.9883 24.7582 27.672 25.8268 25.1954H30.6006C28.6373 28.5783 25.4199 31.0512 21.6458 32.0782V32.0782ZM31.9226 22.2313H26.8257C27.2099 20.7801 27.4091 19.2861 27.4185 17.785C27.4091 16.2839 27.2099 14.7899 26.8257 13.3388H31.9196C32.8306 16.2329 32.8306 19.3371 31.9196 22.2313H31.9226Z" fill="white"/>
</g>
<defs>
<clipPath id="clip0_279_4566">
<rect width="35.57" height="35.57" fill="white"/>
</clipPath>
</defs>
</svg>
