<svg width="103" height="15" viewBox="0 0 103 15" fill="none" xmlns="http://www.w3.org/2000/svg">
<g clip-path="url(#clip0_371_6081)">
<path d="M6.98366 10.1509L6.71745 9.98351L6.45125 10.1509L4.00824 11.6875L4.66396 8.75842L4.72772 8.47361L4.51109 8.27805L2.30567 6.28711L5.1885 6.03224L5.4926 6.00536L5.60762 5.72256L6.71745 2.99382L7.82729 5.72256L7.94231 6.00536L8.24641 6.03224L11.1292 6.28711L8.92382 8.27805L8.70719 8.47361L8.77095 8.75842L9.42667 11.6875L6.98366 10.1509Z" stroke="#C8153A"/>
</g>
<g clip-path="url(#clip1_371_6081)">
<path d="M29.3748 10.1509L29.1086 9.98351L28.8424 10.1509L26.3994 11.6875L27.0551 8.75842L27.1188 8.47361L26.9022 8.27805L24.6968 6.28711L27.5796 6.03224L27.8837 6.00536L27.9987 5.72256L29.1086 2.99382L30.2184 5.72256L30.3334 6.00536L30.6375 6.03224L33.5204 6.28711L31.3149 8.27805L31.0983 8.47361L31.1621 8.75842L31.8178 11.6875L29.3748 10.1509Z" stroke="#C8153A"/>
</g>
<g clip-path="url(#clip2_371_6081)">
<path d="M51.7664 10.1509L51.5002 9.98351L51.234 10.1509L48.791 11.6875L49.4467 8.75842L49.5104 8.47361L49.2938 8.27805L47.0884 6.28711L49.9712 6.03224L50.2753 6.00536L50.3903 5.72256L51.5002 2.99382L52.61 5.72256L52.725 6.00536L53.0291 6.03224L55.912 6.28711L53.7065 8.27805L53.4899 8.47361L53.5537 8.75842L54.2094 11.6875L51.7664 10.1509Z" stroke="#C8153A"/>
</g>
<g clip-path="url(#clip3_371_6081)">
<path d="M73.8913 4.65919L74.4343 5.99502L74.6974 6.64252L75.3691 6.70085L76.7518 6.82335L75.6994 7.77419L75.19 8.23502L75.3411 8.92335L75.6546 10.3292L74.4679 9.58252L73.8913 9.20919L73.3147 9.57085L72.128 10.3175L72.4414 8.91169L72.5926 8.22335L72.0832 7.76252L71.0308 6.81169L72.4135 6.68919L73.0852 6.63085L73.3483 5.98335L73.8913 4.65919V4.65919ZM73.8913 1.66669L72.3183 5.53419L68.2935 5.89002L71.3499 8.64919L70.4318 12.75L73.8913 10.5742L77.3507 12.75L76.4327 8.64919L79.4891 5.89002L75.4643 5.53419L73.8913 1.66669Z" fill="#C8153A"/>
</g>
<g clip-path="url(#clip4_371_6081)">
<path d="M96.2829 4.65919L96.8259 5.99502L97.089 6.64252L97.7607 6.70085L99.1434 6.82335L98.091 7.77419L97.5816 8.23502L97.7327 8.92335L98.0462 10.3292L96.8595 9.58252L96.2829 9.20919L95.7063 9.57085L94.5196 10.3175L94.833 8.91169L94.9842 8.22335L94.4748 7.76252L93.4224 6.81169L94.8051 6.68919L95.4768 6.63085L95.7399 5.98335L96.2829 4.65919V4.65919ZM96.2829 1.66669L94.7099 5.53419L90.6851 5.89002L93.7415 8.64919L92.8234 12.75L96.2829 10.5742L99.7423 12.75L98.8243 8.64919L101.881 5.89002L97.8559 5.53419L96.2829 1.66669Z" fill="#C8153A"/>
</g>
<defs>
<clipPath id="clip0_371_6081">
<rect width="13.4348" height="14" fill="white" transform="translate(0 0.5)"/>
</clipPath>
<clipPath id="clip1_371_6081">
<rect width="13.4348" height="14" fill="white" transform="translate(22.3911 0.5)"/>
</clipPath>
<clipPath id="clip2_371_6081">
<rect width="13.4348" height="14" fill="white" transform="translate(44.7827 0.5)"/>
</clipPath>
<clipPath id="clip3_371_6081">
<rect width="13.4348" height="14" fill="white" transform="translate(67.1738 0.5)"/>
</clipPath>
<clipPath id="clip4_371_6081">
<rect width="13.4348" height="14" fill="white" transform="translate(89.5654 0.5)"/>
</clipPath>
</defs>
</svg>
