<svg width="200" height="27" viewBox="0 0 200 27" fill="none" xmlns="http://www.w3.org/2000/svg">
<g clip-path="url(#clip0_233_4269)">
<path d="M13.5732 18.5806L13.0434 18.2497L12.5136 18.5806L7.82839 21.5074L9.08414 15.9361L9.2132 15.3635L8.77619 14.9717L4.5579 11.1895L10.0765 10.7049L10.6835 10.6516L10.9145 10.0877L13.0434 4.88883L15.1723 10.0877L15.4032 10.6516L16.0103 10.7049L21.5289 11.1895L17.3106 14.9717L16.8736 15.3635L17.0027 15.9361L18.2584 21.5074L13.5732 18.5806Z" stroke="#C8153A" stroke-width="2"/>
</g>
<g clip-path="url(#clip1_233_4269)">
<path d="M57.0515 18.5806L56.5217 18.2497L55.9919 18.5806L51.3067 21.5074L52.5624 15.9361L52.6915 15.3635L52.2545 14.9717L48.0362 11.1895L53.5548 10.7049L54.1618 10.6516L54.3927 10.0877L56.5217 4.88883L58.6506 10.0877L58.8815 10.6516L59.4885 10.7049L65.0072 11.1895L60.7889 14.9717L60.3519 15.3635L60.4809 15.9361L61.7367 21.5074L57.0515 18.5806Z" stroke="#C8153A" stroke-width="2"/>
</g>
<g clip-path="url(#clip2_233_4269)">
<path d="M100.53 18.5806L99.9999 18.2497L99.4701 18.5806L94.7849 21.5074L96.0407 15.9361L96.1697 15.3635L95.7327 14.9717L91.5144 11.1895L97.0331 10.7049L97.6401 10.6516L97.871 10.0877L99.9999 4.88883L102.129 10.0877L102.36 10.6516L102.967 10.7049L108.485 11.1895L104.267 14.9717L103.83 15.3635L103.959 15.9361L105.215 21.5074L100.53 18.5806Z" stroke="#C8153A" stroke-width="2"/>
</g>
<g clip-path="url(#clip3_233_4269)">
<path d="M143.478 8.02125L144.533 10.5975L145.043 11.8462L146.348 11.9588L149.033 12.195L146.989 14.0288L146 14.9175L146.293 16.245L146.902 18.9563L144.598 17.5162L143.478 16.7963L142.359 17.4938L140.054 18.9337L140.663 16.2225L140.956 14.895L139.967 14.0062L137.924 12.1725L140.609 11.9362L141.913 11.8238L142.424 10.575L143.478 8.02125V8.02125ZM143.478 2.25L140.424 9.70875L132.609 10.395L138.543 15.7163L136.761 23.625L143.478 19.4288L150.196 23.625L148.413 15.7163L154.348 10.395L146.533 9.70875L143.478 2.25Z" fill="#C8153A"/>
</g>
<g clip-path="url(#clip4_233_4269)">
<path d="M186.956 8.02125L188.011 10.5975L188.522 11.8462L189.826 11.9588L192.511 12.195L190.467 14.0288L189.478 14.9175L189.772 16.245L190.38 18.9563L188.076 17.5162L186.956 16.7963L185.837 17.4938L183.533 18.9337L184.141 16.2225L184.435 14.895L183.446 14.0062L181.402 12.1725L184.087 11.9362L185.391 11.8238L185.902 10.575L186.956 8.02125V8.02125ZM186.956 2.25L183.902 9.70875L176.087 10.395L182.022 15.7163L180.239 23.625L186.956 19.4288L193.674 23.625L191.891 15.7163L197.826 10.395L190.011 9.70875L186.956 2.25Z" fill="#C8153A"/>
</g>
<defs>
<clipPath id="clip0_233_4269">
<rect width="26.087" height="27" fill="white"/>
</clipPath>
<clipPath id="clip1_233_4269">
<rect width="26.087" height="27" fill="white" transform="translate(43.4783)"/>
</clipPath>
<clipPath id="clip2_233_4269">
<rect width="26.087" height="27" fill="white" transform="translate(86.9565)"/>
</clipPath>
<clipPath id="clip3_233_4269">
<rect width="26.087" height="27" fill="white" transform="translate(130.435)"/>
</clipPath>
<clipPath id="clip4_233_4269">
<rect width="26.087" height="27" fill="white" transform="translate(173.913)"/>
</clipPath>
</defs>
</svg>
